<svg version="1.1" id="Layer_1" xmlns="http://www.w3.org/2000/svg" xmlns:xlink="http://www.w3.org/1999/xlink" x="0px" y="0px"
	 width="100%" viewBox="0 0 500 500" enable-background="new 0 0 500 500" xml:space="preserve">
<path fill="#000000" opacity="1.000000" stroke="none" 
	d="
M458.000000,501.000000 
	C305.333374,501.000000 153.166733,501.000000 1.000082,501.000000 
	C1.000054,334.333405 1.000054,167.666824 1.000027,1.000171 
	C167.666550,1.000114 334.333099,1.000114 500.999756,1.000057 
	C500.999817,167.666519 500.999817,334.333038 500.999908,500.999756 
	C486.833344,501.000000 472.666656,501.000000 458.000000,501.000000 
M168.712067,249.964508 
	C167.219452,253.751938 165.726852,257.539368 164.188248,261.443481 
	C170.975571,262.535522 170.798187,262.441040 173.452637,257.457886 
	C174.154861,256.139648 176.231873,255.083298 177.828751,254.818649 
	C180.439209,254.386063 183.173676,254.701706 185.726944,254.701706 
	C185.808777,248.120880 182.200623,247.103683 177.402786,247.206024 
	C179.358139,242.335403 181.110825,237.969620 183.223007,232.708328 
	C186.776489,241.580978 190.278488,249.276810 192.906357,257.260406 
	C194.617645,262.459351 197.527740,262.792480 202.302231,261.437897 
	C197.823059,250.414978 193.644836,239.611496 188.957993,229.033356 
	C188.006973,226.886932 185.133194,224.265671 183.152863,224.271469 
	C181.132050,224.277374 178.287033,226.850494 177.259430,228.997009 
	C174.116165,235.562836 171.672882,242.463776 168.712067,249.964508 
M344.491455,254.178909 
	C345.982361,247.772278 341.344513,247.503784 336.653320,247.111969 
	C338.579285,242.380905 340.333649,238.071396 342.495422,232.761154 
	C346.020813,241.581543 349.355438,249.186600 352.075989,257.005310 
	C353.735443,261.774628 356.339203,263.223114 361.244049,261.399811 
	C360.839966,260.165619 360.504852,258.907928 360.023438,257.708984 
	C356.249573,248.310410 352.661163,238.826965 348.505615,229.599350 
	C347.455933,227.268570 344.830750,224.719315 342.463013,224.123077 
	C338.718964,223.180252 337.235321,226.735855 336.025269,229.754135 
	C332.318634,238.999542 328.594879,248.238144 324.915497,257.494385 
	C324.397064,258.798553 324.088928,260.186279 323.519653,262.080292 
	C327.046661,261.655518 330.780121,263.778412 331.888428,259.109894 
	C332.812561,255.217178 335.101135,254.177582 338.749664,254.656647 
	C340.376740,254.870300 342.067688,254.597534 344.491455,254.178909 
M136.895615,231.111771 
	C140.146317,230.738937 139.714020,233.035904 139.714600,235.009186 
	C139.717209,243.923401 139.715744,252.837601 139.715744,261.665344 
	C142.385437,261.665344 144.279739,261.665344 146.641037,261.665344 
	C146.641037,251.364319 146.641037,241.413300 146.641037,230.922592 
	C151.168121,230.922592 155.229019,230.922592 159.289917,230.922592 
	C159.697525,230.503448 160.105133,230.084305 160.512756,229.665161 
	C159.362625,227.833542 158.279419,224.466431 157.051804,224.412918 
	C147.127701,223.980347 137.176468,224.170288 127.024422,224.170288 
	C127.024422,226.772064 127.024422,228.797119 127.024422,231.109695 
	C130.245529,231.109695 133.060791,231.109695 136.895615,231.111771 
M303.914764,231.478928 
	C305.029877,229.338837 306.145020,227.198761 307.411469,224.768311 
	C302.587128,223.403427 299.704712,224.201096 297.726074,228.661911 
	C295.576263,233.508713 292.616150,237.996078 289.710938,243.171753 
	C286.696472,237.645813 283.917603,233.090530 281.676147,228.284607 
	C279.618164,223.872070 276.682861,223.292267 272.453094,224.879318 
	C276.926147,237.558578 289.003967,246.890930 286.131622,261.641602 
	C288.986664,261.641602 290.880646,261.641602 293.518585,261.641602 
	C290.863831,252.380127 295.704224,245.616043 299.856934,238.626358 
	C301.129242,236.484863 302.305389,234.286209 303.914764,231.478928 
M252.789856,255.099960 
	C248.511444,255.521210 246.747620,253.551575 246.841461,249.302353 
	C246.984482,242.826614 246.875397,236.345215 246.865601,229.866211 
	C246.856323,223.724594 246.435913,223.407547 240.158707,224.918198 
	C240.158707,234.148361 239.906616,243.430389 240.265305,252.688751 
	C240.444031,257.301788 242.897232,261.329437 247.962128,261.724976 
	C254.325439,262.221893 260.757050,261.844696 267.059418,261.844696 
	C268.277161,255.334183 268.107483,255.116364 262.199768,255.103027 
	C259.375580,255.096664 256.551392,255.101379 252.789856,255.099960 
M207.052979,240.493469 
	C207.351959,245.281754 206.958832,250.261795 208.212128,254.785706 
	C208.952087,257.456573 212.074051,261.027527 214.516693,261.366089 
	C221.109421,262.279816 227.912079,261.678741 234.473709,261.678741 
	C235.963852,256.446289 234.308533,254.457199 229.232529,255.040344 
	C226.282074,255.379242 223.247284,254.920807 220.274536,255.143280 
	C215.744751,255.482300 213.915314,253.474289 213.985535,249.052261 
	C214.098892,241.912781 213.928146,234.768646 214.050797,227.629471 
	C214.095230,225.042984 213.200348,224.079987 210.600235,224.117722 
	C208.140640,224.153458 206.913116,224.845093 207.015198,227.543228 
	C207.165802,231.523376 207.053375,235.513504 207.052979,240.493469 
M373.180359,228.086853 
	C373.439911,225.552414 372.869812,224.038208 369.748993,224.079803 
	C366.699371,224.120438 366.184143,225.583527 366.204681,228.137314 
	C366.279572,237.450882 366.215088,246.765518 366.249817,256.079559 
	C366.256927,257.984650 366.466003,259.889008 366.577698,261.723022 
	C369.085571,261.723022 370.985870,261.723022 373.180420,261.723022 
	C373.180420,250.580963 373.180420,239.780701 373.180359,228.086853 
M314.621063,262.003937 
	C316.028320,261.111359 317.919098,260.495911 318.652222,259.216949 
	C319.058380,258.508301 317.814240,255.961761 316.796631,255.562607 
	C315.617584,255.100128 313.870636,256.085388 312.370209,256.442139 
	C312.840942,258.277679 313.311646,260.113220 314.621063,262.003937 
z"/>
<path fill="#F4F4F4" opacity="1.000000" stroke="none" 
	d="
M168.834686,249.599426 
	C171.672882,242.463776 174.116165,235.562836 177.259430,228.997009 
	C178.287033,226.850494 181.132050,224.277374 183.152863,224.271469 
	C185.133194,224.265671 188.006973,226.886932 188.957993,229.033356 
	C193.644836,239.611496 197.823059,250.414978 202.302231,261.437897 
	C197.527740,262.792480 194.617645,262.459351 192.906357,257.260406 
	C190.278488,249.276810 186.776489,241.580978 183.223007,232.708328 
	C181.110825,237.969620 179.358139,242.335403 177.402786,247.206024 
	C182.200623,247.103683 185.808777,248.120880 185.726944,254.701706 
	C183.173676,254.701706 180.439209,254.386063 177.828751,254.818649 
	C176.231873,255.083298 174.154861,256.139648 173.452637,257.457886 
	C170.798187,262.441040 170.975571,262.535522 164.188248,261.443481 
	C165.726852,257.539368 167.219452,253.751938 168.834686,249.599426 
z"/>
<path fill="#F4F4F4" opacity="1.000000" stroke="none" 
	d="
M344.110535,254.362228 
	C342.067688,254.597534 340.376740,254.870300 338.749664,254.656647 
	C335.101135,254.177582 332.812561,255.217178 331.888428,259.109894 
	C330.780121,263.778412 327.046661,261.655518 323.519653,262.080292 
	C324.088928,260.186279 324.397064,258.798553 324.915497,257.494385 
	C328.594879,248.238144 332.318634,238.999542 336.025269,229.754135 
	C337.235321,226.735855 338.718964,223.180252 342.463013,224.123077 
	C344.830750,224.719315 347.455933,227.268570 348.505615,229.599350 
	C352.661163,238.826965 356.249573,248.310410 360.023438,257.708984 
	C360.504852,258.907928 360.839966,260.165619 361.244049,261.399811 
	C356.339203,263.223114 353.735443,261.774628 352.075989,257.005310 
	C349.355438,249.186600 346.020813,241.581543 342.495422,232.761154 
	C340.333649,238.071396 338.579285,242.380905 336.653320,247.111969 
	C341.344513,247.503784 345.982361,247.772278 344.110535,254.362228 
z"/>
<path fill="#F1F1F1" opacity="1.000000" stroke="none" 
	d="
M136.385834,231.110733 
	C133.060791,231.109695 130.245529,231.109695 127.024422,231.109695 
	C127.024422,228.797119 127.024422,226.772064 127.024422,224.170288 
	C137.176468,224.170288 147.127701,223.980347 157.051804,224.412918 
	C158.279419,224.466431 159.362625,227.833542 160.512756,229.665161 
	C160.105133,230.084305 159.697525,230.503448 159.289917,230.922592 
	C155.229019,230.922592 151.168121,230.922592 146.641037,230.922592 
	C146.641037,241.413300 146.641037,251.364319 146.641037,261.665344 
	C144.279739,261.665344 142.385437,261.665344 139.715744,261.665344 
	C139.715744,252.837601 139.717209,243.923401 139.714600,235.009186 
	C139.714020,233.035904 140.146317,230.738937 136.385834,231.110733 
z"/>
<path fill="#F4F4F4" opacity="1.000000" stroke="none" 
	d="
M303.720154,231.796326 
	C302.305389,234.286209 301.129242,236.484863 299.856934,238.626358 
	C295.704224,245.616043 290.863831,252.380127 293.518585,261.641602 
	C290.880646,261.641602 288.986664,261.641602 286.131622,261.641602 
	C289.003967,246.890930 276.926147,237.558578 272.453094,224.879318 
	C276.682861,223.292267 279.618164,223.872070 281.676147,228.284607 
	C283.917603,233.090530 286.696472,237.645813 289.710938,243.171753 
	C292.616150,237.996078 295.576263,233.508713 297.726074,228.661911 
	C299.704712,224.201096 302.587128,223.403427 307.411469,224.768311 
	C306.145020,227.198761 305.029877,229.338837 303.720154,231.796326 
z"/>
<path fill="#F4F4F4" opacity="1.000000" stroke="none" 
	d="
M253.258514,255.100525 
	C256.551392,255.101379 259.375580,255.096664 262.199768,255.103027 
	C268.107483,255.116364 268.277161,255.334183 267.059418,261.844696 
	C260.757050,261.844696 254.325439,262.221893 247.962128,261.724976 
	C242.897232,261.329437 240.444031,257.301788 240.265305,252.688751 
	C239.906616,243.430389 240.158707,234.148361 240.158707,224.918198 
	C246.435913,223.407547 246.856323,223.724594 246.865601,229.866211 
	C246.875397,236.345215 246.984482,242.826614 246.841461,249.302353 
	C246.747620,253.551575 248.511444,255.521210 253.258514,255.100525 
z"/>
<path fill="#F4F4F4" opacity="1.000000" stroke="none" 
	d="
M207.052979,239.996429 
	C207.053375,235.513504 207.165802,231.523376 207.015198,227.543228 
	C206.913116,224.845093 208.140640,224.153458 210.600235,224.117722 
	C213.200348,224.079987 214.095230,225.042984 214.050797,227.629471 
	C213.928146,234.768646 214.098892,241.912781 213.985535,249.052261 
	C213.915314,253.474289 215.744751,255.482300 220.274536,255.143280 
	C223.247284,254.920807 226.282074,255.379242 229.232529,255.040344 
	C234.308533,254.457199 235.963852,256.446289 234.473709,261.678741 
	C227.912079,261.678741 221.109421,262.279816 214.516693,261.366089 
	C212.074051,261.027527 208.952087,257.456573 208.212128,254.785706 
	C206.958832,250.261795 207.351959,245.281754 207.052979,239.996429 
z"/>
<path fill="#F1F1F1" opacity="1.000000" stroke="none" 
	d="
M373.180389,228.533646 
	C373.180420,239.780701 373.180420,250.580963 373.180420,261.723022 
	C370.985870,261.723022 369.085571,261.723022 366.577698,261.723022 
	C366.466003,259.889008 366.256927,257.984650 366.249817,256.079559 
	C366.215088,246.765518 366.279572,237.450882 366.204681,228.137314 
	C366.184143,225.583527 366.699371,224.120438 369.748993,224.079803 
	C372.869812,224.038208 373.439911,225.552414 373.180389,228.533646 
z"/>
<path fill="#F1F1F1" opacity="1.000000" stroke="none" 
	d="
M314.201721,261.976349 
	C313.311646,260.113220 312.840942,258.277679 312.370239,256.442139 
	C313.870636,256.085388 315.617584,255.100128 316.796631,255.562607 
	C317.814240,255.961761 319.058380,258.508301 318.652222,259.216949 
	C317.919098,260.495911 316.028320,261.111359 314.201721,261.976349 
z"/>
</svg>